<svg width="37" height="35" viewBox="0 0 37 35" fill="none" xmlns="http://www.w3.org/2000/svg">
<circle cx="15" cy="15" r="14.5" stroke="#3E3D39"/>
<circle cx="23" cy="21" r="14" fill="#F1EFEF"/>
<path d="M31.7154 20.4562L21.9627 13.0876C21.8879 13.0315 21.7924 13 21.6917 13H19.4071C19.2161 13 19.1283 13.2067 19.2729 13.3146L28.313 20.1461H13.2065C13.0929 20.1461 13 20.227 13 20.3258V21.6742C13 21.773 13.0929 21.8539 13.2065 21.8539H28.3105L19.2703 28.6854C19.1257 28.7955 19.2135 29 19.4045 29H21.7665C21.8156 29 21.8646 28.9843 21.9008 28.9551L31.7154 21.5438C31.8047 21.4762 31.8764 21.3926 31.9255 21.2988C31.9746 21.205 32 21.1031 32 21C32 20.8969 31.9746 20.795 31.9255 20.7012C31.8764 20.6074 31.8047 20.5238 31.7154 20.4562Z" fill="#3E3D39"/>
</svg>
